<svg width="27" height="27" viewBox="0 0 27 27" fill="none" xmlns="http://www.w3.org/2000/svg">
<path d="M13.2842 0.015625C20.6121 0.0157324 26.5527 5.94095 26.5527 13.25C26.5527 20.559 20.6121 26.4843 13.2842 26.4844C5.95628 26.4844 0.0156421 20.559 0.015625 13.25C0.015625 5.94088 5.95627 0.015625 13.2842 0.015625ZM13.2842 2.63477C7.41572 2.63477 2.6416 7.39647 2.6416 13.25C2.64162 19.1035 7.4158 23.8652 13.2842 23.8652C19.1526 23.8651 23.9267 19.1034 23.9268 13.25C23.9268 7.39654 19.1526 2.63487 13.2842 2.63477ZM14.5996 11.9404V19.8594H11.9746V11.9404H14.5996ZM13.2979 6.30957C14.2377 6.30975 14.9316 6.99959 14.9316 7.9502C14.9315 8.90205 14.2376 9.59065 13.2979 9.59082C12.8081 9.59082 12.3937 9.41807 12.1025 9.125C11.8115 8.83193 11.6416 8.4173 11.6416 7.93164C11.6416 6.99956 12.3377 6.30957 13.2979 6.30957Z" fill="#184274" stroke="#184274" stroke-width="0.03125"/>
</svg>
