<svg width="27" height="28" viewBox="0 0 27 28" fill="none" xmlns="http://www.w3.org/2000/svg">
<path d="M19.9268 14.0654C21.6282 14.0638 23.0663 14.67 24.2686 15.8994C25.4716 17.1296 26.0691 18.6031 26.0684 20.3477C26.0675 22.0926 25.469 23.5666 24.2666 24.7979C23.0653 26.028 21.6281 26.6342 19.9268 26.6309H19.9258C18.2237 26.6308 16.7853 26.0248 15.583 24.7979C14.3805 23.5707 13.7834 22.0971 13.7842 20.3486C13.785 18.5998 14.3833 17.1267 15.585 15.9004C16.7865 14.6742 18.2243 14.0671 19.9268 14.0654ZM2.65723 0.5H21.2549C21.8481 0.500109 22.3459 0.709833 22.7744 1.14746C23.2033 1.58548 23.4119 2.09855 23.4111 2.71289V11.0352C23.2011 10.9512 22.9885 10.8739 22.7734 10.8027C22.4399 10.6924 22.1 10.6029 21.7549 10.5342V2.21289H2.15723V22.2051H10.2676C10.3348 22.5749 10.4223 22.9339 10.5332 23.2812C10.6025 23.4983 10.6793 23.7102 10.7607 23.918H2.65723C2.06357 23.918 1.5653 23.7084 1.13672 23.2715C0.708289 22.8347 0.499269 22.3216 0.5 21.7051V2.71289C0.500046 2.09734 0.709052 1.58445 1.1377 1.14746C1.51294 0.764915 1.9412 0.556407 2.43945 0.509766L2.65723 0.5ZM16.2725 18.8311C15.8623 18.8312 15.5044 18.9946 15.2188 19.2861C14.933 19.5779 14.7764 19.9395 14.7764 20.3486C14.7765 20.7576 14.9331 21.1185 15.2188 21.4102C15.5044 21.7018 15.8623 21.8651 16.2725 21.8652C16.6829 21.8652 17.0414 21.7019 17.3271 21.4102C17.6128 21.1185 17.7694 20.7576 17.7695 20.3486C17.7695 19.9395 17.6129 19.5779 17.3271 19.2861C17.0414 18.9944 16.6828 18.8311 16.2725 18.8311ZM19.9258 18.8311C19.5154 18.8311 19.1568 18.9943 18.8711 19.2861C18.5854 19.5779 18.4297 19.9395 18.4297 20.3486C18.4298 20.7575 18.5856 21.1185 18.8711 21.4102C19.1568 21.7019 19.5154 21.8652 19.9258 21.8652C20.3362 21.8652 20.6947 21.702 20.9805 21.4102C21.2661 21.1185 21.4218 20.7576 21.4219 20.3486C21.4219 19.9395 21.2662 19.5779 20.9805 19.2861C20.6947 18.9944 20.3362 18.8311 19.9258 18.8311ZM23.5791 18.8311C23.1686 18.8311 22.8102 18.9943 22.5244 19.2861C22.2387 19.5779 22.083 19.9395 22.083 20.3486C22.0831 20.7576 22.2388 21.1185 22.5244 21.4102C22.8102 21.702 23.1686 21.8652 23.5791 21.8652C23.9896 21.8652 24.348 21.702 24.6338 21.4102C24.9194 21.1185 25.0751 20.7576 25.0752 20.3486C25.0752 19.9395 24.9195 19.5779 24.6338 19.2861C24.348 18.9943 23.9896 18.8311 23.5791 18.8311ZM10.793 16.7783C10.7126 16.9995 10.6373 17.2237 10.5654 17.4502C10.4572 17.7913 10.3705 18.1384 10.3037 18.4912H5.81348V16.7783H10.793ZM15.71 11.3525C15.6604 11.3771 15.6097 11.4003 15.5605 11.4258C14.7052 11.8683 13.9261 12.4161 13.2217 13.0654H5.81348V11.3525H15.71ZM18.0977 5.92578V7.63965H5.81348V5.92578H18.0977Z" fill="#184274" stroke="#184274"/>
</svg>
