<svg width="26" height="28" viewBox="0 0 26 28" fill="none" xmlns="http://www.w3.org/2000/svg">
<path d="M23.8523 12.073C24.0429 12.0731 24.2316 12.1108 24.4076 12.1838C24.5837 12.2569 24.7436 12.3639 24.8783 12.4988C25.013 12.6337 25.1198 12.7937 25.1926 12.9699C25.2654 13.146 25.3029 13.3348 25.3027 13.5254C25.3026 13.716 25.2649 13.9047 25.1919 14.0807C25.1188 14.2568 25.0118 14.4167 24.8769 14.5514C24.7421 14.6861 24.582 14.7929 24.4059 14.8657C24.2297 14.9386 24.0409 14.976 23.8503 14.9758L23.8523 12.073ZM21.6645 13.5234V12.072H21.6655L21.6645 13.5234ZM11.9525 14.9749C11.5676 14.9749 11.1984 14.822 10.9262 14.5498C10.654 14.2776 10.5011 13.9084 10.5011 13.5234C10.5011 13.1385 10.654 12.7693 10.9262 12.4971C11.1984 12.2249 11.5676 12.072 11.9525 12.072V14.9749ZM11.9346 12.072C12.3196 12.072 12.6887 12.2249 12.9609 12.4971C13.2331 12.7693 13.386 13.1385 13.386 13.5234C13.386 13.9084 13.2331 14.2776 12.9609 14.5498C12.6887 14.822 12.3196 14.9749 11.9346 14.9749V12.072ZM1.45192 14.9749C1.06698 14.9749 0.697803 14.822 0.425608 14.5498C0.153412 14.2776 0.000495911 13.9084 0.000495911 13.5234C0.000495911 13.1385 0.153412 12.7693 0.425608 12.4971C0.697803 12.2249 1.06698 12.072 1.45192 12.072V14.9749ZM23.8503 14.9758H23.8141L23.8155 12.073H23.8523L23.8503 14.9758ZM23.8141 14.9758H23.3835L23.3859 12.073H23.8155L23.8141 14.9758ZM23.3835 14.9758H22.9538L22.9558 12.073H23.3859L23.3835 14.9758ZM22.9538 14.9758L22.5233 14.9754L22.5257 12.0725L22.9558 12.073L22.9538 14.9758ZM22.5233 14.9754L22.0936 14.9749L22.0956 12.072L22.5257 12.0725L22.5233 14.9754ZM22.0936 14.9749H21.6635L21.6655 12.072H22.0956L22.0936 14.9749ZM21.6645 14.9749L11.9525 14.9749V12.072L21.6645 12.072V14.9749ZM11.9346 14.9749L1.45192 14.9749V12.072L11.9346 12.072V14.9749Z" fill="#184274"/>
<path d="M13.4952 1.5L23.7403 11.7456C23.9762 11.9815 24.1633 12.2615 24.291 12.5697C24.4187 12.8779 24.4844 13.2082 24.4844 13.5418C24.4844 13.8753 24.4187 14.2057 24.291 14.5138C24.1633 14.822 23.9762 15.102 23.7403 15.3379L13.4947 25.583" stroke="#184274" stroke-width="3" stroke-linecap="round" stroke-linejoin="round"/>
</svg>
