<svg width="28" height="28" viewBox="0 0 28 28" fill="none" xmlns="http://www.w3.org/2000/svg">
<path d="M1.58691 0.25H7.70703C7.99713 0.250043 8.25481 0.346311 8.48828 0.547852C8.72562 0.752779 8.85524 0.983908 8.89551 1.24414L8.89648 1.25195L9.87695 6.52051C9.9236 6.89857 9.90936 7.19972 9.8457 7.43262C9.78155 7.66723 9.66555 7.86809 9.49512 8.03809H9.49414L5.8291 11.7314L5.69824 11.8633L5.78711 12.0264C6.29821 12.9695 6.90457 13.8797 7.60547 14.7568C8.12985 15.4131 8.69345 16.052 9.29688 16.6729L9.91309 17.2871C10.7002 18.072 11.5251 18.8008 12.3887 19.4727C13.2542 20.1461 14.1708 20.761 15.1377 21.3184L15.3037 21.4141L15.4395 21.2793L18.9902 17.7363C19.1829 17.5442 19.4414 17.3939 19.7754 17.291C20.1056 17.1894 20.4247 17.1612 20.7344 17.2031L25.9307 18.2539C26.2353 18.3421 26.4794 18.4985 26.6709 18.7217C26.8616 18.944 26.9502 19.1828 26.9502 19.4443V25.5479C26.9502 25.938 26.8225 26.2504 26.5703 26.502C26.3182 26.7533 26.0056 26.8808 25.6143 26.8809C22.5036 26.8809 19.4275 26.2048 16.3848 24.8496C13.3416 23.4941 10.5705 21.571 8.07227 19.0781C5.57417 16.5854 3.64695 13.8222 2.28809 10.7881C0.929412 7.75432 0.251061 4.68645 0.25 1.58301L0.255859 1.44043C0.28367 1.11574 0.409106 0.849118 0.629883 0.628906C0.882095 0.377405 1.19528 0.25 1.58691 0.25Z" fill="#184274" stroke="#184274" stroke-width="0.5"/>
</svg>
