<svg width="27" height="27" viewBox="0 0 27 27" fill="none" xmlns="http://www.w3.org/2000/svg">
<path d="M13.2842 15.4062C15.071 15.4052 16.8301 15.6151 18.5625 16.0352C20.2932 16.4548 21.9998 17.081 23.6816 17.917V17.918C24.4014 18.2893 24.9786 18.8263 25.417 19.5381C25.8523 20.2451 26.0694 21.0165 26.0684 21.8623V23.1875C26.0684 23.9644 25.7969 24.6175 25.2402 25.1738C24.6839 25.7296 24.0288 26.0008 23.248 26H3.32129C2.54113 26 1.8857 25.729 1.3291 25.1738C0.842101 24.688 0.572915 24.1269 0.512695 23.4727L0.5 23.1865V21.8623L0.509766 21.5479C0.557396 20.823 0.772426 20.1557 1.15332 19.5381C1.5904 18.8294 2.16402 18.2932 2.87988 17.9209C4.56377 17.0811 6.27218 16.4532 8.00488 16.0352C9.73759 15.6171 11.497 15.4073 13.2842 15.4062ZM13.2842 17.7188C11.6936 17.7176 10.1174 17.9091 8.55664 18.293C6.99666 18.6766 5.4539 19.2485 3.92871 20.0068L3.91895 20.0117L3.90918 20.0176C3.58303 20.1983 3.31973 20.4527 3.12305 20.7725C2.94499 21.062 2.84611 21.3799 2.8252 21.7178L2.82129 21.8623V23.6875H23.7471V21.8623C23.747 21.471 23.6479 21.1038 23.4463 20.7734C23.2502 20.4524 22.9859 20.1974 22.6582 20.0166L22.6494 20.0117L22.6396 20.0068C21.1143 19.2461 19.5711 18.6744 18.0107 18.293C16.4503 17.9115 14.8743 17.7199 13.2842 17.7188ZM13.2842 0.5C14.9774 0.50004 16.4145 1.09535 17.6221 2.2998C18.8296 3.50428 19.4258 4.9372 19.4258 6.625C19.4258 8.3128 18.8296 9.74572 17.6221 10.9502C16.4145 12.1547 14.9774 12.75 13.2842 12.75C11.591 12.75 10.1539 12.1546 8.94629 10.9502C7.73872 9.74572 7.1416 8.3128 7.1416 6.625C7.1416 4.9372 7.73872 3.50428 8.94629 2.2998C10.1539 1.09542 11.591 0.5 13.2842 0.5ZM13.2842 2.8125C12.2363 2.81134 11.327 3.18964 10.585 3.93359C9.84444 4.67617 9.46543 5.58191 9.46289 6.62402C9.46041 7.66808 9.84022 8.57546 10.5859 9.31934C11.3318 10.0633 12.2411 10.4413 13.2861 10.4375C14.3281 10.4336 15.2352 10.0568 15.9814 9.32129L15.9834 9.31934C16.7262 8.57719 17.1055 7.66987 17.1055 6.625C17.1055 5.64535 16.7721 4.78739 16.1182 4.07324L15.9834 3.93262C15.2404 3.19152 14.3313 2.81376 13.2842 2.8125Z" fill="#184274" stroke="#184274"/>
</svg>
