<svg width="45" height="45" viewBox="0 0 45 45" fill="none" xmlns="http://www.w3.org/2000/svg">
<g filter="url(#filter0_i_1617_218)">
<circle cx="22.3186" cy="22.3186" r="22.3186" fill="#040518"/>
</g>
<circle cx="22.3186" cy="22.3186" r="21.8186" stroke="#F3E6A2"/>
<g filter="url(#filter1_i_1617_218)">
<path d="M29.5251 21.1536C29.5248 21.3085 29.4647 21.4569 29.358 21.5663C29.2514 21.6757 29.1068 21.7371 28.9561 21.7371H27.3749V22.7796H28.9572C29.0338 22.7761 29.1103 22.7886 29.182 22.8164C29.2538 22.8441 29.3193 22.8865 29.3747 22.941C29.43 22.9955 29.4741 23.0609 29.5042 23.1333C29.5343 23.2057 29.5498 23.2837 29.5498 23.3625C29.5498 23.4412 29.5343 23.5192 29.5042 23.5916C29.4741 23.6641 29.43 23.7295 29.3747 23.7839C29.3193 23.8384 29.2538 23.8808 29.182 23.9085C29.1103 23.9363 29.0338 23.9488 28.9572 23.9454H26.806C26.6562 23.9442 26.5129 23.8824 26.4072 23.7734C26.3015 23.6644 26.242 23.5169 26.2414 23.363V18.9442C26.2414 18.6253 26.4956 18.3608 26.8092 18.3608H28.9594C29.1039 18.3702 29.2395 18.4359 29.3385 18.5445C29.4375 18.6532 29.4924 18.7965 29.4922 18.9453C29.4919 19.0941 29.4364 19.2372 29.337 19.3454C29.2376 19.4536 29.1018 19.5188 28.9572 19.5277H27.3749V20.5702H28.9572C29.2709 20.5702 29.5251 20.8335 29.5251 21.1536ZM25.0917 23.9154C25.0338 23.935 24.9731 23.9444 24.9121 23.9432C24.8232 23.9447 24.7351 23.9246 24.6552 23.8844C24.5753 23.8442 24.5058 23.7851 24.4525 23.712L22.2504 20.6402V23.363C22.2395 23.5097 22.1752 23.6468 22.0702 23.7468C21.9652 23.8468 21.8273 23.9024 21.6842 23.9024C21.541 23.9024 21.4031 23.8468 21.2981 23.7468C21.1931 23.6468 21.1288 23.5097 21.1179 23.363V18.9442C21.1175 18.8681 21.1318 18.7925 21.1598 18.722C21.1879 18.6515 21.2293 18.5874 21.2815 18.5334C21.3338 18.4794 21.3959 18.4365 21.4644 18.4073C21.5328 18.378 21.6062 18.363 21.6804 18.363C21.8556 18.363 22.0178 18.4586 22.126 18.5975L24.3454 21.6815V18.9442C24.3454 18.6253 24.5995 18.3608 24.9132 18.3608C25.2236 18.3608 25.481 18.6253 25.481 18.9442V23.363C25.4815 23.4856 25.4441 23.6052 25.3741 23.7045C25.3041 23.8038 25.2052 23.8776 25.0917 23.9154ZM19.7379 23.9454C19.5879 23.9445 19.4444 23.8828 19.3384 23.7738C19.2325 23.6647 19.1728 23.5171 19.1722 23.363V18.9442C19.1722 18.6253 19.4264 18.3608 19.74 18.3608C20.0526 18.3608 20.3068 18.6253 20.3068 18.9442V23.363C20.3059 23.5176 20.2456 23.6655 20.1391 23.7746C20.0325 23.8837 19.8883 23.9451 19.7379 23.9454ZM18.083 23.9454H15.935C15.7851 23.9439 15.6416 23.8821 15.5354 23.7733C15.4293 23.6644 15.3689 23.5171 15.3672 23.363V18.9442C15.3672 18.6253 15.6246 18.3608 15.935 18.3608C16.2487 18.3608 16.5029 18.6253 16.5029 18.9442V22.7784H18.0863C18.2369 22.7784 18.3813 22.8399 18.4878 22.9493C18.5943 23.0588 18.6541 23.2072 18.6541 23.3619C18.6541 23.5167 18.5943 23.6651 18.4878 23.7745C18.3813 23.8839 18.2369 23.9454 18.0863 23.9454M22.3207 11.9648C16.3579 11.9648 11.5049 16.0136 11.5049 20.9869C11.5049 25.4435 15.3531 29.1766 20.5501 29.8856C20.9016 29.9612 21.3819 30.1246 21.503 30.4324C21.6111 30.7103 21.5744 31.1415 21.5376 31.4327L21.3894 32.3773C21.3494 32.6552 21.1731 33.4753 22.3347 32.9741C23.4985 32.4751 28.5689 29.1977 30.8403 26.5149C32.3912 24.7645 33.1332 22.9729 33.1332 20.9869C33.1332 16.0136 28.2791 11.9648 22.3174 11.9648" fill="#F3E6A2"/>
</g>
<defs>
<filter id="filter0_i_1617_218" x="0" y="0" width="44.6367" height="48.6372" filterUnits="userSpaceOnUse" color-interpolation-filters="sRGB">
<feFlood flood-opacity="0" result="BackgroundImageFix"/>
<feBlend mode="normal" in="SourceGraphic" in2="BackgroundImageFix" result="shape"/>
<feColorMatrix in="SourceAlpha" type="matrix" values="0 0 0 0 0 0 0 0 0 0 0 0 0 0 0 0 0 0 127 0" result="hardAlpha"/>
<feOffset dy="4"/>
<feGaussianBlur stdDeviation="2"/>
<feComposite in2="hardAlpha" operator="arithmetic" k2="-1" k3="1"/>
<feColorMatrix type="matrix" values="0 0 0 0 0 0 0 0 0 0 0 0 0 0 0 0 0 0 0.25 0"/>
<feBlend mode="normal" in2="shape" result="effect1_innerShadow_1617_218"/>
</filter>
<filter id="filter1_i_1617_218" x="11.5049" y="11.9648" width="21.6279" height="25.168" filterUnits="userSpaceOnUse" color-interpolation-filters="sRGB">
<feFlood flood-opacity="0" result="BackgroundImageFix"/>
<feBlend mode="normal" in="SourceGraphic" in2="BackgroundImageFix" result="shape"/>
<feColorMatrix in="SourceAlpha" type="matrix" values="0 0 0 0 0 0 0 0 0 0 0 0 0 0 0 0 0 0 127 0" result="hardAlpha"/>
<feOffset dy="4"/>
<feGaussianBlur stdDeviation="2"/>
<feComposite in2="hardAlpha" operator="arithmetic" k2="-1" k3="1"/>
<feColorMatrix type="matrix" values="0 0 0 0 0 0 0 0 0 0 0 0 0 0 0 0 0 0 0.25 0"/>
<feBlend mode="normal" in2="shape" result="effect1_innerShadow_1617_218"/>
</filter>
</defs>
</svg>
