<svg width="90" height="71" viewBox="0 0 90 71" fill="none" xmlns="http://www.w3.org/2000/svg">
<rect width="90" height="71" rx="20" fill="#78C0E6"/>
<path d="M47.1528 20.7994C47.6618 20.2876 48.352 20 49.0718 20C49.7915 20 50.4818 20.2876 50.9908 20.7994L63.2053 33.0861C63.7141 33.5981 64 34.2925 64 35.0165C64 35.7405 63.7141 36.4348 63.2053 36.9469L50.9908 49.2335C50.4789 49.7309 49.7932 50.0061 49.0815 49.9999C48.3699 49.9937 47.6891 49.7065 47.1858 49.2003C46.6826 48.6941 46.3971 48.0092 46.3909 47.2933C46.3847 46.5775 46.6583 45.8878 47.1528 45.3728L54.5004 37.7469H28.7143C27.9944 37.7469 27.304 37.4592 26.795 36.9471C26.286 36.4351 26 35.7406 26 35.0165C26 34.2923 26.286 33.5979 26.795 33.0858C27.304 32.5738 27.9944 32.2861 28.7143 32.2861H54.5004L47.1528 24.6602C46.6439 24.1481 46.358 23.4538 46.358 22.7298C46.358 22.0058 46.6439 21.3114 47.1528 20.7994Z" fill="#184274"/>
</svg>
