<svg width="45" height="45" viewBox="0 0 45 45" fill="none" xmlns="http://www.w3.org/2000/svg">
<g filter="url(#filter0_i_1617_215)">
<circle cx="22.3186" cy="22.3186" r="22.3186" fill="#040518"/>
</g>
<circle cx="22.3186" cy="22.3186" r="21.8186" stroke="#F3E6A2"/>
<g filter="url(#filter1_i_1617_215)">
<path d="M18.1632 11.9644H26.474C29.64 11.9644 32.2124 14.5367 32.2124 17.7028V26.0136C32.2124 27.5355 31.6078 28.9951 30.5317 30.0712C29.4555 31.1474 27.9959 31.752 26.474 31.752H18.1632C14.9972 31.752 12.4248 29.1796 12.4248 26.0136V17.7028C12.4248 16.1808 13.0294 14.7213 14.1055 13.6451C15.1817 12.5689 16.6413 11.9644 18.1632 11.9644ZM17.9653 13.9431C17.0207 13.9431 16.1147 14.3184 15.4468 14.9863C14.7788 15.6543 14.4036 16.5602 14.4036 17.5049V26.2114C14.4036 28.1803 15.9965 29.7732 17.9653 29.7732H26.6719C27.6165 29.7732 28.5225 29.3979 29.1904 28.73C29.8584 28.062 30.2337 27.1561 30.2337 26.2114V17.5049C30.2337 15.536 28.6408 13.9431 26.6719 13.9431H17.9653ZM27.5129 15.4272C27.8409 15.4272 28.1554 15.5575 28.3874 15.7894C28.6193 16.0213 28.7496 16.3359 28.7496 16.6639C28.7496 16.9919 28.6193 17.3065 28.3874 17.5384C28.1554 17.7703 27.8409 17.9006 27.5129 17.9006C27.1849 17.9006 26.8703 17.7703 26.6384 17.5384C26.4064 17.3065 26.2761 16.9919 26.2761 16.6639C26.2761 16.3359 26.4064 16.0213 26.6384 15.7894C26.8703 15.5575 27.1849 15.4272 27.5129 15.4272ZM22.3186 16.9113C23.6306 16.9113 24.8889 17.4324 25.8166 18.3602C26.7443 19.2879 27.2655 20.5462 27.2655 21.8582C27.2655 23.1702 26.7443 24.4284 25.8166 25.3561C24.8889 26.2839 23.6306 26.8051 22.3186 26.8051C21.0066 26.8051 19.7483 26.2839 18.8206 25.3561C17.8929 24.4284 17.3717 23.1702 17.3717 21.8582C17.3717 20.5462 17.8929 19.2879 18.8206 18.3602C19.7483 17.4324 21.0066 16.9113 22.3186 16.9113ZM22.3186 18.89C21.5314 18.89 20.7765 19.2027 20.2198 19.7594C19.6632 20.316 19.3505 21.071 19.3505 21.8582C19.3505 22.6454 19.6632 23.4003 20.2198 23.957C20.7765 24.5136 21.5314 24.8263 22.3186 24.8263C23.1058 24.8263 23.8608 24.5136 24.4174 23.957C24.974 23.4003 25.2868 22.6454 25.2868 21.8582C25.2868 21.071 24.974 20.316 24.4174 19.7594C23.8608 19.2027 23.1058 18.89 22.3186 18.89Z" fill="#F3E6A2"/>
</g>
<path d="M18.1631 12.4644H26.4736C29.3635 12.4644 31.7128 14.8128 31.7129 17.7026V26.0132C31.7129 27.4025 31.1601 28.7349 30.1777 29.7173C29.1953 30.6997 27.8629 31.2524 26.4736 31.2524H18.1631C15.2733 31.2524 12.9248 28.903 12.9248 26.0132V17.7026C12.9248 16.3134 13.4766 14.9809 14.459 13.9985C15.4413 13.0162 16.7738 12.4644 18.1631 12.4644ZM17.9658 13.4429C16.8886 13.4429 15.8545 13.8706 15.0928 14.6323C14.331 15.3941 13.9033 16.4281 13.9033 17.5054V26.2114C13.9033 28.4564 15.7208 30.2729 17.9658 30.2729H26.6719C27.7491 30.2729 28.7822 29.8452 29.5439 29.0835C30.3057 28.3218 30.7334 27.2887 30.7334 26.2114V17.5054C30.7334 15.2604 28.9169 13.4429 26.6719 13.4429H17.9658ZM22.3184 17.4116C23.4976 17.4116 24.629 17.8796 25.4629 18.7134C26.2968 19.5473 26.7656 20.6786 26.7656 21.8579C26.7656 23.0373 26.2968 24.1685 25.4629 25.0024C24.6289 25.8364 23.4978 26.3052 22.3184 26.3052C21.1391 26.3051 20.0077 25.8363 19.1738 25.0024C18.34 24.1685 17.8721 23.0372 17.8721 21.8579C17.8721 20.6786 18.3399 19.5473 19.1738 18.7134C20.0077 17.8795 21.1391 17.4117 22.3184 17.4116ZM22.3184 18.3901C21.3986 18.3902 20.5166 18.7554 19.8662 19.4058C19.2159 20.0561 18.8507 20.9382 18.8506 21.8579C18.8506 22.7776 19.216 23.6597 19.8662 24.3101C20.5166 24.9604 21.3986 25.3266 22.3184 25.3267C23.2382 25.3267 24.1201 24.9605 24.7705 24.3101C25.4209 23.6597 25.7871 22.7777 25.7871 21.8579C25.787 20.9382 25.4209 20.0561 24.7705 19.4058C24.1201 18.7555 23.238 18.3901 22.3184 18.3901ZM27.5127 15.9272C27.7081 15.9272 27.896 16.0049 28.0342 16.1431C28.1721 16.2811 28.2499 16.4684 28.25 16.6636C28.25 16.8589 28.1723 17.0469 28.0342 17.1851C27.896 17.3232 27.7081 17.4009 27.5127 17.4009C27.3175 17.4008 27.1303 17.323 26.9922 17.1851C26.854 17.0469 26.7764 16.859 26.7764 16.6636C26.7765 16.4683 26.8541 16.2811 26.9922 16.1431C27.1303 16.005 27.3174 15.9273 27.5127 15.9272Z" stroke="#F3E6A2"/>
<defs>
<filter id="filter0_i_1617_215" x="0" y="0" width="44.6367" height="48.6372" filterUnits="userSpaceOnUse" color-interpolation-filters="sRGB">
<feFlood flood-opacity="0" result="BackgroundImageFix"/>
<feBlend mode="normal" in="SourceGraphic" in2="BackgroundImageFix" result="shape"/>
<feColorMatrix in="SourceAlpha" type="matrix" values="0 0 0 0 0 0 0 0 0 0 0 0 0 0 0 0 0 0 127 0" result="hardAlpha"/>
<feOffset dy="4"/>
<feGaussianBlur stdDeviation="2"/>
<feComposite in2="hardAlpha" operator="arithmetic" k2="-1" k3="1"/>
<feColorMatrix type="matrix" values="0 0 0 0 0 0 0 0 0 0 0 0 0 0 0 0 0 0 0.25 0"/>
<feBlend mode="normal" in2="shape" result="effect1_innerShadow_1617_215"/>
</filter>
<filter id="filter1_i_1617_215" x="12.4248" y="11.9644" width="19.7881" height="23.7876" filterUnits="userSpaceOnUse" color-interpolation-filters="sRGB">
<feFlood flood-opacity="0" result="BackgroundImageFix"/>
<feBlend mode="normal" in="SourceGraphic" in2="BackgroundImageFix" result="shape"/>
<feColorMatrix in="SourceAlpha" type="matrix" values="0 0 0 0 0 0 0 0 0 0 0 0 0 0 0 0 0 0 127 0" result="hardAlpha"/>
<feOffset dy="4"/>
<feGaussianBlur stdDeviation="2"/>
<feComposite in2="hardAlpha" operator="arithmetic" k2="-1" k3="1"/>
<feColorMatrix type="matrix" values="0 0 0 0 0 0 0 0 0 0 0 0 0 0 0 0 0 0 0.25 0"/>
<feBlend mode="normal" in2="shape" result="effect1_innerShadow_1617_215"/>
</filter>
</defs>
</svg>
