<svg width="31" height="29" viewBox="0 0 31 29" fill="none" xmlns="http://www.w3.org/2000/svg">
<path d="M19.8603 27.0016V16.2644C19.8603 15.9084 19.6991 15.5671 19.4121 15.3153C19.1252 15.0636 18.736 14.9222 18.3302 14.9222H12.2102C11.8044 14.9222 11.4152 15.0636 11.1283 15.3153C10.8414 15.5671 10.6802 15.9084 10.6802 16.2644V27.0016" stroke="#184274" stroke-width="3" stroke-linecap="round" stroke-linejoin="round"/>
<path d="M1.5 12.2379C1.49989 11.8474 1.5969 11.4616 1.78426 11.1074C1.97161 10.7532 2.24481 10.4391 2.58478 10.1871L13.2949 2.13414C13.8472 1.72466 14.547 1.5 15.2701 1.5C15.9933 1.5 16.6931 1.72466 17.2454 2.13414L27.9555 10.1871C28.2954 10.4391 28.5686 10.7532 28.756 11.1074C28.9433 11.4616 29.0403 11.8474 29.0402 12.2379V24.3173C29.0402 25.0292 28.7178 25.7119 28.144 26.2154C27.5701 26.7188 26.7918 27.0016 25.9802 27.0016H4.56003C3.74846 27.0016 2.97013 26.7188 2.39626 26.2154C1.82239 25.7119 1.5 25.0292 1.5 24.3173V12.2379Z" stroke="#184274" stroke-width="3" stroke-linecap="round" stroke-linejoin="round"/>
</svg>
