<svg width="43" height="43" viewBox="0 0 43 43" fill="none" xmlns="http://www.w3.org/2000/svg">
<g filter="url(#filter0_i_1249_1581)">
<path d="M12.47 0H30.53C37.41 0 43 5.59 43 12.47V30.53C43 33.8373 41.6862 37.009 39.3476 39.3476C37.009 41.6862 33.8373 43 30.53 43H12.47C5.59 43 0 37.41 0 30.53V12.47C0 9.16275 1.3138 5.99096 3.65238 3.65238C5.99096 1.3138 9.16275 0 12.47 0ZM12.04 4.3C9.98722 4.3 8.01853 5.11546 6.56699 6.56699C5.11546 8.01853 4.3 9.98722 4.3 12.04V30.96C4.3 35.2385 7.7615 38.7 12.04 38.7H30.96C33.0128 38.7 34.9815 37.8845 36.433 36.433C37.8845 34.9815 38.7 33.0128 38.7 30.96V12.04C38.7 7.7615 35.2385 4.3 30.96 4.3H12.04ZM32.7875 7.525C33.5003 7.525 34.1838 7.80815 34.6879 8.31215C35.1919 8.81615 35.475 9.49973 35.475 10.2125C35.475 10.9253 35.1919 11.6088 34.6879 12.1129C34.1838 12.6169 33.5003 12.9 32.7875 12.9C32.0747 12.9 31.3912 12.6169 30.8871 12.1129C30.3831 11.6088 30.1 10.9253 30.1 10.2125C30.1 9.49973 30.3831 8.81615 30.8871 8.31215C31.3912 7.80815 32.0747 7.525 32.7875 7.525ZM21.5 10.75C24.3511 10.75 27.0854 11.8826 29.1014 13.8986C31.1174 15.9146 32.25 18.6489 32.25 21.5C32.25 24.3511 31.1174 27.0854 29.1014 29.1014C27.0854 31.1174 24.3511 32.25 21.5 32.25C18.6489 32.25 15.9146 31.1174 13.8986 29.1014C11.8826 27.0854 10.75 24.3511 10.75 21.5C10.75 18.6489 11.8826 15.9146 13.8986 13.8986C15.9146 11.8826 18.6489 10.75 21.5 10.75ZM21.5 15.05C19.7894 15.05 18.1488 15.7296 16.9392 16.9392C15.7296 18.1488 15.05 19.7894 15.05 21.5C15.05 23.2106 15.7296 24.8512 16.9392 26.0608C18.1488 27.2705 19.7894 27.95 21.5 27.95C23.2106 27.95 24.8512 27.2705 26.0608 26.0608C27.2705 24.8512 27.95 23.2106 27.95 21.5C27.95 19.7894 27.2705 18.1488 26.0608 16.9392C24.8512 15.7296 23.2106 15.05 21.5 15.05Z" fill="#78C0E6"/>
</g>
<defs>
<filter id="filter0_i_1249_1581" x="0" y="0" width="43" height="47" filterUnits="userSpaceOnUse" color-interpolation-filters="sRGB">
<feFlood flood-opacity="0" result="BackgroundImageFix"/>
<feBlend mode="normal" in="SourceGraphic" in2="BackgroundImageFix" result="shape"/>
<feColorMatrix in="SourceAlpha" type="matrix" values="0 0 0 0 0 0 0 0 0 0 0 0 0 0 0 0 0 0 127 0" result="hardAlpha"/>
<feOffset dy="4"/>
<feGaussianBlur stdDeviation="2"/>
<feComposite in2="hardAlpha" operator="arithmetic" k2="-1" k3="1"/>
<feColorMatrix type="matrix" values="0 0 0 0 0 0 0 0 0 0 0 0 0 0 0 0 0 0 0.25 0"/>
<feBlend mode="normal" in2="shape" result="effect1_innerShadow_1249_1581"/>
</filter>
</defs>
</svg>
