<svg width="37" height="38" viewBox="0 0 37 38" fill="none" xmlns="http://www.w3.org/2000/svg">
<path d="M18.4992 12.6757C15.09 12.6757 12.3416 15.5257 12.3416 19C12.3416 22.4743 15.1165 25.3243 18.4992 25.3243C21.8819 25.3243 24.6568 22.4743 24.6568 19C24.6568 15.5257 21.8819 12.6757 18.4992 12.6757ZM36.9984 19C36.9984 16.3671 36.9983 13.7886 36.8662 11.1557C36.7341 8.11571 36.047 5.40143 33.8799 3.20286C31.7129 0.977143 29.0966 0.271428 26.1367 0.135714C23.5732 -1.3145e-07 21.0626 0 18.4992 0C15.9357 0 13.4251 -1.3145e-07 10.8617 0.135714C7.90179 0.271428 5.25905 0.977143 3.11843 3.20286C0.951386 5.42857 0.264274 8.11571 0.132137 11.1557C-1.27985e-07 13.7886 0 16.3671 0 19C0 21.6329 -1.27985e-07 24.2114 0.132137 26.8443C0.264274 29.8843 0.951386 32.5986 3.11843 34.7971C5.28548 37.0229 7.90179 37.7286 10.8617 37.8643C13.4251 38 15.9357 38 18.4992 38C21.0626 38 23.5732 38 26.1367 37.8643C29.0966 37.7286 31.7393 37.0229 33.8799 34.7971C36.047 32.5714 36.7341 29.8843 36.8662 26.8443C37.0248 24.2386 36.9984 21.6329 36.9984 19ZM18.4992 28.7443C13.2401 28.7443 9.01174 24.4014 9.01174 19C9.01174 13.5986 13.2401 9.25571 18.4992 9.25571C23.7582 9.25571 27.9866 13.5986 27.9866 19C27.9866 24.4014 23.7582 28.7443 18.4992 28.7443ZM28.383 11.1286C27.1674 11.1286 26.1631 10.1243 26.1631 8.84857C26.1631 7.57286 27.1409 6.56857 28.383 6.56857C29.6251 6.56857 30.6029 7.57286 30.6029 8.84857C30.6096 9.14588 30.5568 9.44144 30.4477 9.71691C30.3386 9.99238 30.1755 10.2419 29.9687 10.45C29.7661 10.6625 29.5231 10.8299 29.2549 10.942C28.9867 11.054 28.6989 11.1083 28.4094 11.1014L28.383 11.1286Z" fill="#F3E6A2"/>
</svg>
