<svg width="22" height="22" viewBox="0 0 22 22" fill="none" xmlns="http://www.w3.org/2000/svg">
<g filter="url(#filter0_i_1616_220)">
<path d="M18.0202 9.18878C18.0199 9.34363 17.9598 9.49203 17.8532 9.60142C17.7465 9.71081 17.602 9.77225 17.4513 9.77225H15.87V10.8147H17.4523C17.5289 10.8113 17.6054 10.8238 17.6771 10.8515C17.7489 10.8793 17.8144 10.9217 17.8698 10.9761C17.9252 11.0306 17.9692 11.096 17.9993 11.1685C18.0294 11.2409 18.0449 11.3189 18.0449 11.3976C18.0449 11.4764 18.0294 11.5543 17.9993 11.6268C17.9692 11.6992 17.9252 11.7646 17.8698 11.8191C17.8144 11.8736 17.7489 11.9159 17.6771 11.9437C17.6054 11.9714 17.5289 11.984 17.4523 11.9805H15.3011C15.1513 11.9794 15.0081 11.9176 14.9024 11.8085C14.7967 11.6995 14.7371 11.5521 14.7365 11.3982V6.97938C14.7365 6.66042 14.9907 6.39591 15.3043 6.39591H17.4545C17.599 6.40536 17.7346 6.47109 17.8336 6.5797C17.9326 6.68831 17.9876 6.83162 17.9873 6.98043C17.987 7.12923 17.9315 7.27233 17.8321 7.38055C17.7327 7.48877 17.5969 7.55397 17.4523 7.56285H15.87V8.60531H17.4523C17.766 8.60531 18.0202 8.86871 18.0202 9.18878ZM13.5868 11.9505C13.5289 11.9701 13.4682 11.9795 13.4072 11.9783C13.3183 11.9799 13.2302 11.9597 13.1503 11.9196C13.0704 11.8794 13.0009 11.8203 12.9476 11.7471L10.7455 8.67533V11.3982C10.7347 11.5449 10.6703 11.682 10.5653 11.782C10.4603 11.882 10.3224 11.9376 10.1793 11.9376C10.0361 11.9376 9.89821 11.882 9.79322 11.782C9.68823 11.682 9.62388 11.5449 9.61307 11.3982V6.97938C9.61264 6.90321 9.62687 6.8277 9.65494 6.7572C9.68302 6.6867 9.72438 6.6226 9.77664 6.56858C9.82891 6.51456 9.89106 6.4717 9.95951 6.44245C10.028 6.41319 10.1014 6.39814 10.1755 6.39814C10.3507 6.39814 10.5129 6.49372 10.6211 6.63264L12.8405 9.71668V6.97938C12.8405 6.66042 13.0947 6.39591 13.4083 6.39591C13.7187 6.39591 13.9762 6.66042 13.9762 6.97938V11.3982C13.9767 11.5208 13.9392 11.6404 13.8692 11.7397C13.7992 11.839 13.7003 11.9128 13.5868 11.9505ZM8.23297 11.9805C8.08302 11.9797 7.93948 11.918 7.83355 11.8089C7.72762 11.6999 7.66787 11.5523 7.66731 11.3982V6.97938C7.66731 6.66042 7.92148 6.39591 8.23514 6.39591C8.54771 6.39591 8.80188 6.66042 8.80188 6.97938V11.3982C8.80103 11.5527 8.74075 11.7007 8.63418 11.8098C8.52761 11.9189 8.3834 11.9802 8.23297 11.9805ZM6.57816 11.9805H4.43014C4.28017 11.9791 4.13672 11.9173 4.03056 11.8084C3.92441 11.6996 3.86401 11.5523 3.86232 11.3982V6.97938C3.86232 6.66042 4.11973 6.39591 4.43014 6.39591C4.7438 6.39591 4.99797 6.66042 4.99797 6.97938V10.8136H6.5814C6.732 10.8136 6.87643 10.8751 6.98292 10.9845C7.08941 11.0939 7.14923 11.2423 7.14923 11.3971C7.14923 11.5518 7.08941 11.7002 6.98292 11.8096C6.87643 11.9191 6.732 11.9805 6.5814 11.9805M10.8158 0C4.85304 0 0 4.04871 0 9.02207C0 13.4787 3.84826 17.2117 9.04524 17.9208C9.39675 17.9964 9.87697 18.1597 9.99811 18.4676C10.1063 18.7454 10.0695 19.1766 10.0327 19.4678L9.88454 20.4125C9.84452 20.6903 9.66823 21.5105 10.8298 21.0093C11.9936 20.5103 17.0641 17.2328 19.3354 14.55C20.8864 12.7996 21.6283 11.0081 21.6283 9.02207C21.6283 4.04871 16.7742 0 10.8125 0" fill="#F3E6A2"/>
</g>
<defs>
<filter id="filter0_i_1616_220" x="0" y="0" width="21.6279" height="25.168" filterUnits="userSpaceOnUse" color-interpolation-filters="sRGB">
<feFlood flood-opacity="0" result="BackgroundImageFix"/>
<feBlend mode="normal" in="SourceGraphic" in2="BackgroundImageFix" result="shape"/>
<feColorMatrix in="SourceAlpha" type="matrix" values="0 0 0 0 0 0 0 0 0 0 0 0 0 0 0 0 0 0 127 0" result="hardAlpha"/>
<feOffset dy="4"/>
<feGaussianBlur stdDeviation="2"/>
<feComposite in2="hardAlpha" operator="arithmetic" k2="-1" k3="1"/>
<feColorMatrix type="matrix" values="0 0 0 0 0 0 0 0 0 0 0 0 0 0 0 0 0 0 0.25 0"/>
<feBlend mode="normal" in2="shape" result="effect1_innerShadow_1616_220"/>
</filter>
</defs>
</svg>
