<svg width="47" height="46" viewBox="0 0 47 46" fill="none" xmlns="http://www.w3.org/2000/svg">
<g filter="url(#filter0_i_1246_1583)">
<path d="M39.1592 19.9679C39.1586 20.3044 39.0281 20.6269 38.7963 20.8646C38.5645 21.1023 38.2504 21.2358 37.9229 21.2358H34.4867V23.5012H37.9253C38.0917 23.4937 38.2579 23.521 38.4138 23.5812C38.5697 23.6415 38.7121 23.7336 38.8324 23.852C38.9527 23.9704 39.0485 24.1125 39.1139 24.2699C39.1793 24.4274 39.2131 24.5967 39.2131 24.7679C39.2131 24.9391 39.1793 25.1085 39.1139 25.2659C39.0485 25.4233 38.9527 25.5654 38.8324 25.6838C38.7121 25.8022 38.5697 25.8943 38.4138 25.9546C38.2579 26.0149 38.0917 26.0421 37.9253 26.0346H33.2504C32.925 26.0321 32.6137 25.8978 32.384 25.6609C32.1543 25.4239 32.0248 25.1035 32.0236 24.7691V15.1667C32.0236 14.4736 32.5759 13.8988 33.2575 13.8988H37.93C38.2441 13.9193 38.5387 14.0622 38.7538 14.2982C38.9689 14.5342 39.0884 14.8456 39.0878 15.169C39.0872 15.4924 38.9666 15.8033 38.7506 16.0385C38.5346 16.2737 38.2394 16.4153 37.9253 16.4347H34.4867V18.7H37.9253C38.6069 18.7 39.1592 19.2724 39.1592 19.9679ZM29.5251 25.9694C29.3993 26.012 29.2674 26.0324 29.135 26.0298C28.9417 26.0332 28.7503 25.9895 28.5767 25.9021C28.403 25.8148 28.252 25.6864 28.1361 25.5274L23.3508 18.8522V24.7691C23.3272 25.0879 23.1874 25.3858 22.9593 25.6031C22.7311 25.8205 22.4315 25.9413 22.1203 25.9413C21.8092 25.9413 21.5096 25.8205 21.2814 25.6031C21.0533 25.3858 20.9134 25.0879 20.8899 24.7691V15.1667C20.889 15.0012 20.9199 14.8371 20.9809 14.6839C21.0419 14.5307 21.1318 14.3914 21.2454 14.274C21.359 14.1566 21.494 14.0635 21.6428 13.9999C21.7915 13.9364 21.951 13.9036 22.1121 13.9036C22.4929 13.9036 22.8454 14.1113 23.0805 14.4132L27.9034 21.1151V15.1667C27.9034 14.4736 28.4557 13.8988 29.1373 13.8988C29.8119 13.8988 30.3713 14.4736 30.3713 15.1667V24.7691C30.3724 25.0355 30.291 25.2954 30.1389 25.5112C29.9868 25.727 29.7718 25.8874 29.5251 25.9694ZM17.8909 26.0346C17.565 26.0327 17.2531 25.8987 17.0229 25.6617C16.7927 25.4247 16.6629 25.1039 16.6616 24.7691V15.1667C16.6616 14.4736 17.214 13.8988 17.8956 13.8988C18.5748 13.8988 19.1272 14.4736 19.1272 15.1667V24.7691C19.1253 25.105 18.9943 25.4265 18.7627 25.6636C18.5312 25.9006 18.2178 26.034 17.8909 26.0346ZM14.2948 26.0346H9.62704C9.30114 26.0315 8.9894 25.8972 8.75872 25.6606C8.52804 25.424 8.39678 25.104 8.39311 24.7691V15.1667C8.39311 14.4736 8.95249 13.8988 9.62704 13.8988C10.3086 13.8988 10.861 14.4736 10.861 15.1667V23.4988H14.3019C14.6292 23.4988 14.943 23.6324 15.1744 23.8701C15.4058 24.1079 15.5358 24.4304 15.5358 24.7667C15.5358 25.103 15.4058 25.4255 15.1744 25.6632C14.943 25.901 14.6292 26.0346 14.3019 26.0346M23.5035 0C10.546 0 0 8.79815 0 19.6057C0 29.2902 8.36255 37.4024 19.656 38.9432C20.4199 39.1075 21.4634 39.4625 21.7267 40.1315C21.9617 40.7352 21.8818 41.6723 21.8019 42.305L21.4799 44.3579C21.3929 44.9616 21.0098 46.744 23.5341 45.6548C26.0631 44.5704 37.0815 37.4483 42.0173 31.6183C45.3877 27.8145 47 23.9214 47 19.6057C47 8.79815 36.4516 0 23.4965 0" fill="#78C0E6"/>
</g>
<defs>
<filter id="filter0_i_1246_1583" x="0" y="0" width="47" height="50" filterUnits="userSpaceOnUse" color-interpolation-filters="sRGB">
<feFlood flood-opacity="0" result="BackgroundImageFix"/>
<feBlend mode="normal" in="SourceGraphic" in2="BackgroundImageFix" result="shape"/>
<feColorMatrix in="SourceAlpha" type="matrix" values="0 0 0 0 0 0 0 0 0 0 0 0 0 0 0 0 0 0 127 0" result="hardAlpha"/>
<feOffset dy="4"/>
<feGaussianBlur stdDeviation="2"/>
<feComposite in2="hardAlpha" operator="arithmetic" k2="-1" k3="1"/>
<feColorMatrix type="matrix" values="0 0 0 0 0 0 0 0 0 0 0 0 0 0 0 0 0 0 0.25 0"/>
<feBlend mode="normal" in2="shape" result="effect1_innerShadow_1246_1583"/>
</filter>
</defs>
</svg>
