<svg width="24" height="35" viewBox="0 0 24 35" fill="none" xmlns="http://www.w3.org/2000/svg">
<path d="M12 16.625C10.8634 16.625 9.77327 16.1641 8.96954 15.3436C8.16582 14.5231 7.71429 13.4103 7.71429 12.25C7.71429 11.0897 8.16582 9.97688 8.96954 9.15641C9.77327 8.33594 10.8634 7.875 12 7.875C13.1366 7.875 14.2267 8.33594 15.0305 9.15641C15.8342 9.97688 16.2857 11.0897 16.2857 12.25C16.2857 12.8245 16.1749 13.3934 15.9595 13.9242C15.7441 14.455 15.4284 14.9373 15.0305 15.3436C14.6325 15.7498 14.16 16.0721 13.6401 16.292C13.1201 16.5118 12.5628 16.625 12 16.625ZM12 0C8.8174 0 5.76515 1.29062 3.51472 3.58794C1.26428 5.88526 0 9.0011 0 12.25C0 21.4375 12 35 12 35C12 35 24 21.4375 24 12.25C24 9.0011 22.7357 5.88526 20.4853 3.58794C18.2348 1.29062 15.1826 0 12 0Z" fill="#F3E6A2"/>
</svg>
